<svg xmlns="http://www.w3.org/2000/svg" width="85" height="131" viewBox="0 0 85 131">
  <path fill="#3B0078" fill-rule="evenodd" d="M422.418,47.626 C423.952,47.626 425.197,48.871 425.197,50.406 L425.197,50.406 L425.197,89.313 C425.197,112.336 406.534,131 383.51,131 C360.487,131 341.824,112.336 341.824,89.313 L341.824,89.313 L341.824,50.406 C341.824,48.871 343.068,47.626 344.603,47.626 L344.603,47.626 Z M362.667,0.889 C371.109,0.889 377.952,7.732 377.952,16.174 C377.952,24.616 371.109,31.459 362.667,31.459 C354.225,31.459 347.382,24.616 347.382,16.174 C347.382,7.732 354.225,0.889 362.667,0.889 Z M404.354,0.889 C412.795,0.889 419.639,7.732 419.639,16.174 C419.639,24.616 412.795,31.459 404.354,31.459 C395.912,31.459 389.068,24.616 389.068,16.174 C389.068,7.732 395.912,0.889 404.354,0.889 Z" transform="translate(-341)"/>
</svg>
