<svg xmlns="http://www.w3.org/2000/svg" width="84" height="84" viewBox="0 0 84 84">
  <path fill="#3B0078" fill-rule="evenodd" d="M78.024,47.626 L2.779,47.626 C1.244,47.626 0,48.871 0,50.406 L0,65.691 C0,67.226 1.244,68.47 2.779,68.47 L37.922,68.47 C40.163,68.47 41.483,70.986 40.208,72.829 L3.013,126.641 C1.739,128.484 3.058,131 5.299,131 L80.595,131 C82.13,131 83.374,129.756 83.374,128.221 L83.374,112.936 C83.374,111.401 82.13,110.157 80.595,110.157 L44.768,110.157 C42.517,110.157 41.2,107.62 42.495,105.779 L80.297,52.004 C81.591,50.163 80.275,47.626 78.024,47.626" transform="translate(0 -47)"/>
</svg>
